<?xml version="1.0" encoding="utf-8"?>
<!-- Generator: Adobe Illustrator 16.0.0, SVG Export Plug-In . SVG Version: 6.00 Build 0)  -->
<!DOCTYPE svg PUBLIC "-//W3C//DTD SVG 1.1//EN" "http://www.w3.org/Graphics/SVG/1.1/DTD/svg11.dtd">
<svg version="1.1" id="Layer_1" xmlns="http://www.w3.org/2000/svg" xmlns:xlink="http://www.w3.org/1999/xlink" x="0px" y="0px"
	 width="160px" height="160px" viewBox="0 0 160 160" style="enable-background:new 0 0 160 160;" xml:space="preserve">
<style type="text/css">
<![CDATA[
	.st0{fill:#4F5B93;}
	.st1{fill:#8892BF;}
]]>
</style>
<rect class="st1" width="160" height="160"/>
<path class="st0" d="M98.2,115.4c-0.5-0.3-1-0.8-1.4-1.3c-0.2-0.2-0.3-0.5-0.4-0.8H34.6V52.5h83.8v39.7c1.8,0.2,3.3,1.3,3.9,2.9
	c0.6-0.3,1.2-0.5,1.8-0.6c0.4,0,0.9,0,1.3,0.1V37.4c0-3.2-2.6-5.9-5.9-5.9H33.5c-3.2,0-5.9,2.6-5.9,5.9v77.2c0,3.2,2.6,5.9,5.9,5.9
	h64.2c-0.5-1-0.6-2.2-0.3-3.3C97.5,116.5,97.8,115.9,98.2,115.4L98.2,115.4z M112,41.4c0-1.2,1-2.2,2.2-2.2h2.2c1.2,0,2.2,1,2.2,2.2
	v2.5c0,1.2-1,2.2-2.2,2.2h-2.2c-1.2,0-2.2-1-2.2-2.2V41.4z M101.9,41.4c0-1.2,1-2.2,2.2-2.2h2.2c1.2,0,2.2,1,2.2,2.2v2.5
	c0,1.2-1,2.2-2.2,2.2H104c-1.2,0-2.2-1-2.2-2.2V41.4z M91.8,41.4c0-1.2,1-2.2,2.2-2.2h2.2c1.2,0,2.2,1,2.2,2.2v2.5
	c0,1.2-1,2.2-2.2,2.2h-2.2c-1.2,0-2.2-1-2.2-2.2V41.4z M91.8,41.4"/>
<path class="st0" d="M132.4,111.3l-0.7-3.7c-0.1-0.5-0.6-0.8-1.1-0.7l-3.3,0.6c-0.4-0.9-0.9-1.8-1.5-2.6l2.1-2.6
	c0.2-0.2,0.2-0.4,0.2-0.7c0-0.2-0.1-0.5-0.3-0.6l-2.9-2.4c-0.2-0.2-0.4-0.2-0.7-0.2c-0.2,0-0.5,0.1-0.6,0.3l-2.1,2.6
	c-0.9-0.5-1.8-0.8-2.8-1v-3.3c0-0.5-0.4-0.9-0.9-0.9h-3.8c-0.5,0-0.9,0.4-0.9,0.9v3.3c-1,0.2-1.9,0.6-2.8,1l-2.1-2.6
	c-0.3-0.4-0.9-0.4-1.3-0.1l-2.9,2.4c-0.2,0.2-0.3,0.4-0.3,0.6c0,0.2,0.1,0.5,0.2,0.7l2.1,2.6c-0.6,0.8-1.1,1.7-1.5,2.6l-3.3-0.6
	c-0.5-0.1-1,0.2-1.1,0.7l-0.7,3.7c0,0.2,0,0.5,0.2,0.7c0.1,0.2,0.4,0.3,0.6,0.4l3.3,0.6c0.1,1,0.2,2,0.5,2.9l-2.9,1.7
	c-0.2,0.1-0.4,0.3-0.4,0.6c-0.1,0.2,0,0.5,0.1,0.7l1.9,3.3c0.1,0.2,0.3,0.4,0.6,0.4c0.1,0,0.2,0,0.2,0c0.2,0,0.3,0,0.5-0.1l2.9-1.7
	c0.7,0.7,1.5,1.4,2.3,1.9l-1.1,3.1c-0.1,0.2-0.1,0.5,0,0.7c0.1,0.2,0.3,0.4,0.5,0.5l3.5,1.3c0.1,0,0.2,0.1,0.3,0.1
	c0.1,0,0.3,0,0.4-0.1c0.2-0.1,0.4-0.3,0.5-0.5l1.1-3.1c0.5,0.1,1,0.1,1.5,0.1c0.5,0,1,0,1.5-0.1l1.1,3.1c0.1,0.2,0.3,0.4,0.5,0.5
	c0.1,0.1,0.3,0.1,0.4,0.1c0.1,0,0.2,0,0.3-0.1l3.5-1.3c0.2-0.1,0.4-0.3,0.5-0.5c0.1-0.2,0.1-0.5,0-0.7l-1.1-3.1
	c0.8-0.5,1.6-1.2,2.3-1.9l2.9,1.7c0.1,0.1,0.3,0.1,0.5,0.1c0.1,0,0.2,0,0.2,0c0.2-0.1,0.4-0.2,0.6-0.4l1.9-3.3
	c0.1-0.2,0.2-0.5,0.1-0.7c-0.1-0.2-0.2-0.4-0.4-0.6l-2.9-1.7c0.3-0.9,0.5-1.9,0.5-3l3.3-0.6c0.2,0,0.5-0.2,0.6-0.4
	C132.4,111.8,132.4,111.5,132.4,111.3L132.4,111.3z M116,117.2c-2.8,0-5-2.3-5-5c0-2.8,2.3-5,5-5s5,2.3,5,5
	C121,114.9,118.8,117.2,116,117.2L116,117.2z M116,117.2"/>
<path class="st0" d="M64.7,86.2c0-1.2-0.7-2.3-1.8-2.8l-9.8-4.6l9.8-4.6c1.1-0.5,1.8-1.6,1.8-2.8v-0.1c0-1.1-0.5-2-1.4-2.6
	c-0.5-0.3-1.1-0.5-1.6-0.5c-0.4,0-0.9,0.1-1.3,0.3L44.6,76c-1.1,0.5-1.8,1.6-1.8,2.8V79c0,1.2,0.7,2.3,1.8,2.8l15.7,7.3
	c0.4,0.2,0.8,0.3,1.3,0.3c0.6,0,1.2-0.2,1.6-0.5C64.2,88.3,64.7,87.4,64.7,86.2L64.7,86.2z M64.7,86.2"/>
<path class="st0" d="M111.5,76l-15.7-7.3c-0.4-0.2-0.8-0.3-1.3-0.3c-0.6,0-1.2,0.2-1.7,0.5c-0.9,0.6-1.4,1.5-1.4,2.6v0.1
	c0,1.2,0.7,2.3,1.8,2.8l9.8,4.6l-9.8,4.6c-1.1,0.5-1.8,1.6-1.8,2.8v0.1c0,1,0.5,2,1.4,2.6c0.5,0.3,1.1,0.5,1.6,0.5
	c0.4,0,0.9-0.1,1.3-0.3l15.7-7.3c1.1-0.5,1.8-1.6,1.8-2.8v-0.2C113.2,77.6,112.5,76.5,111.5,76L111.5,76z M111.5,76"/>
<g>
	<path class="st0" d="M78.2,65.5c4.3,0,8.6,2,8.6,6.8c0,4.4-5.1,6.1-6.1,7.7c-0.8,1.2-0.5,2.9-2.8,2.9c-1.5,0-2.2-1.2-2.2-2.3
		c0-4,5.9-5,5.9-8.3c0-1.8-1.2-2.9-3.3-2.9c-4.3,0-2.6,4.5-5.9,4.5c-1.2,0-2.2-0.7-2.2-2.1C70.2,68.4,74,65.5,78.2,65.5L78.2,65.5z
		 M78,85c1.5,0,2.8,1.3,2.8,2.8c0,1.5-1.3,2.8-2.8,2.8c-1.5,0-2.8-1.3-2.8-2.8C75.2,86.3,76.5,85,78,85L78,85z M78,85"/>
</g>
</svg>
