<?xml version="1.0" encoding="utf-8"?>
<!-- Generator: Adobe Illustrator 16.0.0, SVG Export Plug-In . SVG Version: 6.00 Build 0)  -->
<!DOCTYPE svg PUBLIC "-//W3C//DTD SVG 1.1//EN" "http://www.w3.org/Graphics/SVG/1.1/DTD/svg11.dtd">
<svg version="1.1" id="Layer_1" xmlns="http://www.w3.org/2000/svg" xmlns:xlink="http://www.w3.org/1999/xlink" x="0px" y="0px"
	 width="160px" height="160px" viewBox="0 0 160 160" style="enable-background:new 0 0 160 160;" xml:space="preserve">
<style type="text/css">
<![CDATA[
	.st0{fill:#B46E84;}
	.st1{fill:#F092B0;}
]]>
</style>
<rect x="1" y="1" class="st1" width="160" height="160"/>
<g>
	<g>
		<path class="st0" d="M131,26.5H29c-5.6,0-10.2,4.6-10.2,10.2v66.4c0,5.6,4.6,10.2,10.2,10.2h32.8L55.6,127
			c-0.6,1.4-0.5,3.1,0.3,4.4c0.8,1.3,2.3,2.1,3.9,2.1h40.4c0,0,0,0,0,0c2.5,0,4.6-2.1,4.6-4.6c0-0.8-0.2-1.5-0.5-2.1l-6.1-13.5H131
			c5.6,0,10.2-4.6,10.2-10.2V36.7C141.1,31.1,136.6,26.5,131,26.5L131,26.5z M132,103.1c0,0.6-0.5,1-1,1H29c-0.6,0-1-0.5-1-1V36.7
			c0-0.6,0.5-1,1-1H131c0.6,0,1,0.5,1,1V103.1z M132,103.1"/>
	</g>
	<path class="st0" d="M94.1,48.3c-0.3-0.3-0.9-0.3-1.3,0.1l-5,5c-0.4,0.4-0.4,1-0.1,1.3l7.1,7.1c0.2,0.2,0.4,0.2,0.6,0.2
		c0.2,0,0.5-0.1,0.7-0.3l5-5c0.4-0.4,0.4-1,0.1-1.3L94.1,48.3z M94.1,48.3"/>
	<path class="st0" d="M63.6,79.3c-0.2-0.2-0.5-0.3-0.9-0.2c-0.3,0.1-0.6,0.4-0.7,0.7l-3.4,10.1c-0.1,0.3,0,0.6,0.2,0.8
		c0.2,0.2,0.4,0.2,0.6,0.2c0.1,0,0.2,0,0.2,0l10.1-3.4c0.3-0.1,0.6-0.4,0.7-0.7c0.1-0.3,0-0.6-0.2-0.9L63.6,79.3z M63.6,79.3"/>
	<path class="st0" d="M89,74.6c0.4-0.2,0.8-0.6,0.9-1.1c0.1-0.5,0-1-0.3-1.3c-0.6-0.7-1.2-1.4-1.8-2.1l5.5-5.5
		c0.2-0.2,0.3-0.4,0.3-0.7c0-0.2-0.1-0.5-0.2-0.6l-7.1-7.1c-0.3-0.3-0.9-0.3-1.3,0.1l-5.4,5.4c-3.6-3.4-7.2-6.5-10.4-8.8
		c-2.3-1.6-6.4-4.3-8.7-4.4c-0.4,0-0.8,0.2-1.1,0.5c-0.3,0.3-0.5,0.7-0.5,1.1c0,1.6,1.4,4.4,3.9,7.9c2.4,3.4,5.6,7.3,9.3,11.2l-7,7
		c-0.4,0.4-0.4,1-0.1,1.3l7.1,7.1c0.2,0.2,0.4,0.2,0.6,0.2c0.2,0,0.5-0.1,0.7-0.3l7.2-7.2c0.6,0.6,1.2,1.1,1.9,1.6
		c0.3,0.2,0.6,0.4,1,0.4c0.1,0,0.2,0,0.2,0c0.5-0.1,0.8-0.3,1.1-0.7c0.4-0.7,1-1.4,1.6-2C87.1,75.7,88,75,89,74.6L89,74.6z M89,74.6
		"/>
	<path class="st0" d="M92.9,75.9c-1.8,0-3.5,0.8-5,2.2c-1.8,1.8-2.5,3.6-2.2,5.3c0.3,1.7,1.7,3.3,3.7,4.2c1.8,0.8,3.4,1.1,4.8,1.3
		c1.5,0.2,2.9,0.5,4.2,1.3c0.3,0.2,0.6,0.3,0.9,0.3c0.2,0,0.4,0,0.6-0.1c0.5-0.2,0.8-0.7,0.9-1.2c0.5-4-0.2-7.7-2.2-10.2
		C97.2,77,95.1,75.9,92.9,75.9L92.9,75.9z M92.9,75.9"/>
</g>
</svg>
